<?xml version="1.0" encoding="utf-8"?>
<!-- Generator: Adobe Illustrator 27.0.1, SVG Export Plug-In . SVG Version: 6.00 Build 0)  -->
<svg version="1.1" id="Layer_1" xmlns="http://www.w3.org/2000/svg" xmlns:xlink="http://www.w3.org/1999/xlink" x="0px" y="0px"
	 viewBox="0 0 100 100" style="enable-background:new 0 0 100 100;" xml:space="preserve">
<style type="text/css">
	.st0{fill:#EAB39C;}
	.st1{fill:#EC64FF;}
	.st2{fill:#F29C1F;}
	.st3{fill:#FFC60A;}
	.st4{fill:#56C1A6;}
	.st5{fill:#FBF063;}
	.st6{fill:#F57E20;}
	.st7{fill:#6AC9F2;}
	.st8{fill:#D3896D;}
	.st9{fill:#854D9B;}
</style>
<path class="st0" d="M50,0C22.4,0,0,22.4,0,50c0,27.6,22.4,50,50,50s50-22.4,50-50C100,22.4,77.6,0,50,0z M50,68
	c-9.9,0-18-8.1-18-18s8.1-18,18-18c9.9,0,18,8.1,18,18S60,68,50,68z"/>
<path class="st1" d="M93.1,37.1c-3.1-2.8-5.7-8.5-5.8-12.7c0-4.2-3.4-8.2-7.6-8.8c-4.1-0.6-9.4-4-11.7-7.6C65.8,4.5,60.8,3,57,4.7
	c-3.8,1.7-10.1,1.7-13.9,0C39.3,3,34.3,4.5,32,8c-2.3,3.5-7.5,6.9-11.7,7.6c-4.1,0.6-7.5,4.6-7.6,8.8s-2.6,9.9-5.8,12.7
	c-3.1,2.8-3.9,8-1.6,11.5c2.2,3.6,3.1,9.8,2,13.9c-1.2,4,1,8.8,4.8,10.6c3.8,1.8,7.9,6.5,9.1,10.6c1.2,4,5.6,6.9,9.7,6.3
	S41,91.2,44.2,94c3.2,2.7,8.4,2.7,11.6,0C59,91.2,65,89.4,69.1,90c4.1,0.6,8.5-2.3,9.7-6.3c1.2-4,5.3-8.8,9.1-10.6
	c3.8-1.8,6-6.6,4.8-10.6c-1.2-4.1-0.3-10.3,2-13.9C97,45.1,96.2,39.9,93.1,37.1z M50,65.9c-8.7,0-15.7-7.1-15.7-15.9
	s7-15.9,15.7-15.9c8.7,0,15.7,7.1,15.7,15.9S58.7,65.9,50,65.9z"/>
<path class="st2" d="M34.8,32.2l-4.7-3.7c-0.6-0.5-1.6-0.4-2.1,0.2c-0.5,0.6-0.4,1.6,0.2,2.1c0,0,0,0,0,0l4.7,3.7
	c0.6,0.5,1.6,0.4,2.1-0.2C35.6,33.7,35.5,32.7,34.8,32.2C34.8,32.2,34.8,32.2,34.8,32.2z M81.4,60.1c-0.6-0.5-1.6-0.5-2.1,0.2
	l-3.9,4.6c-0.5,0.6-0.4,1.6,0.2,2.1s1.6,0.4,2.1-0.2l3.9-4.6C82.1,61.5,82,60.6,81.4,60.1z M79.9,29.5c0.2-0.8-0.3-1.6-1.1-1.8
	c0,0,0,0,0,0l-5.8-1.4c-0.8-0.2-1.6,0.3-1.8,1.1c-0.2,0.8,0.3,1.6,1.1,1.8l5.8,1.4C78.9,30.9,79.7,30.4,79.9,29.5
	C79.9,29.5,79.9,29.5,79.9,29.5z M33.3,75.7l-6,0.7c-0.8,0.1-1.4,0.8-1.4,1.6c0.1,0.8,0.8,1.4,1.6,1.4c0,0,0.1,0,0.1,0l6-0.7
	c0.8-0.1,1.4-0.8,1.4-1.6C35,76.2,34.2,75.6,33.3,75.7C33.4,75.7,33.4,75.7,33.3,75.7z"/>
<path class="st3" d="M17,53c-1.1,0-2,0.9-2,2c0,1.1,0.9,2,2,2c1.1,0,2-0.9,2-2C19,53.9,18.1,53,17,53z M86,50c-1.1,0-2,0.9-2,2
	s0.9,2,2,2s2-0.9,2-2S87.1,50,86,50z"/>
<path class="st4" d="M79.8,43.5c-0.6-0.6-1.5-0.6-2.1-0.1l-4.4,4.1c-0.6,0.6-0.6,1.5,0,2.1c0.6,0.6,1.5,0.6,2.1,0.1l4.4-4.1
	C80.3,45,80.4,44.1,79.8,43.5C79.8,43.5,79.8,43.5,79.8,43.5z M18.1,35c-0.8,0.1-1.4,0.8-1.4,1.6l0.5,6c0,0.8,0.8,1.5,1.6,1.4
	c0.8,0,1.5-0.8,1.4-1.6c0,0,0-0.1,0-0.1l-0.5-6C19.7,35.6,19,35,18.1,35z M40,81c-1.1,0-2,0.9-2,2s0.9,2,2,2s2-0.9,2-2
	S41.1,81,40,81z M44,22c-1.1,0-2,0.9-2,2s0.9,2,2,2s2-0.9,2-2S45.1,22,44,22z"/>
<path class="st5" d="M25.3,61.2l-3.9,4.6c-0.5,0.6-0.4,1.6,0.2,2.1s1.6,0.4,2.1-0.2l3.9-4.6c0.5-0.6,0.5-1.6-0.1-2.1
	C26.8,60.5,25.9,60.6,25.3,61.2C25.3,61.2,25.3,61.2,25.3,61.2z M53,20.2c0.7-0.5,0.9-1.4,0.4-2.1c0,0,0,0,0,0l-3.4-5
	c-0.5-0.7-1.4-0.8-2.1-0.3c-0.6,0.5-0.8,1.4-0.4,2l3.4,5C51.4,20.5,52.4,20.7,53,20.2z M52,81c-1.1,0-2,0.9-2,2s0.9,2,2,2s2-0.9,2-2
	S53.1,81,52,81z M34,66c-1.1,0-2,0.9-2,2s0.9,2,2,2c0,0,0,0,0,0c1.1,0,2-0.9,2-2S35.1,66,34,66z M33,20c0-1.1-0.9-2-2-2s-2,0.9-2,2
	c0,1.1,0.9,2,2,2C32.1,22,33,21.1,33,20L33,20z M73,35c-1.1,0-2,0.9-2,2s0.9,2,2,2s2-0.9,2-2S74.1,35,73,35z"/>
<path class="st6" d="M73,76c-1.1,0-2,0.9-2,2s0.9,2,2,2s2-0.9,2-2S74.1,76,73,76z M60,24c-1.1,0-2,0.9-2,2s0.9,2,2,2s2-0.9,2-2
	S61.1,24,60,24z"/>
<path class="st7" d="M62.5,74.1c-0.2-0.8-0.9-1.3-1.7-1.2c0,0,0,0-0.1,0c-0.8,0.2-1.3,1-1.2,1.8l1.2,6c0.2,0.8,0.9,1.3,1.7,1.2
	c0,0,0,0,0.1,0c0.8-0.2,1.3-1,1.2-1.8L62.5,74.1z M70,62c-1.1,0-2,0.9-2,2c0,1.1,0.9,2,2,2c1.1,0,2-0.9,2-2S71.1,62,70,62z M26,46
	c-1.1,0-2,0.9-2,2c0,1.1,0.9,2,2,2c1.1,0,2-0.9,2-2C28,46.9,27.1,46,26,46z M46,73c-1.1,0-2,0.9-2,2s0.9,2,2,2c0,0,0,0,0,0
	c1.1,0,2-0.9,2-2S47.1,73,46,73z M65,15c-1.1,0-2,0.9-2,2s0.9,2,2,2c1.1,0,2-0.9,2-2S66.1,15,65,15z M86,38c-1.1,0-2,0.9-2,2
	s0.9,2,2,2c1.1,0,2-0.9,2-2S87.1,38,86,38z"/>
<path class="st8" d="M52,98C24.4,98,2,75.6,2,48c0-13.3,5.2-25.4,13.7-34.4C6,22.8,0,35.7,0,50c0,27.6,22.4,50,50,50
	c14.3,0,27.2-6,36.3-15.7C77.4,92.8,65.3,98,52,98z"/>
<path class="st9" d="M66.8,49c0-8.8-7-15.9-15.7-15.9c-4.6,0-8.7,2-11.6,5.1c2.8-2.6,6.5-4.1,10.6-4.1c8.7,0,15.7,7.1,15.7,15.9
	c0,4.1-1.6,7.9-4.2,10.7C64.9,57.7,66.8,53.5,66.8,49z M8,36.1c3.1-2.8,5.7-8.5,5.8-12.7c0-2.1,0.9-4.1,2.2-5.7
	c-1.9,1.7-3.2,4.2-3.2,6.7C12.7,28.2,10.6,33.2,8,36.1C7.9,36.2,8,36.1,8,36.1z M33,7c0.2-0.3,0.4-0.6,0.6-0.8C33,6.7,32.4,7.3,32,8
	c-0.4,0.6-0.9,1.2-1.4,1.7C31.6,8.9,32.4,7.9,33,7z M88.9,72.1c-1.7,0.8-3.4,2.1-4.9,3.8c1.3-1.2,2.6-2.2,3.9-2.8
	c1.1-0.5,2-1.3,2.8-2.2C90.2,71.4,89.6,71.8,88.9,72.1z M70.1,89C66,88.4,60,90.2,56.8,93c-3.2,2.7-8.4,2.7-11.6,0
	c-3.2-2.7-9.2-4.5-13.3-3.9s-8.5-2.3-9.7-6.3s-5.3-8.8-9.1-10.6c-3.8-1.8-6-6.6-4.8-10.6c1.1-4.1,0.3-10.3-2-13.9
	c-2.1-3.3-1.6-7.9,1-10.8L7,37.1c-3.1,2.8-3.9,8-1.6,11.5c2.2,3.6,3.1,9.8,2,13.9c-1.2,4,1,8.8,4.8,10.6c3.8,1.8,7.9,6.5,9.1,10.6
	c1.2,4,5.6,6.9,9.7,6.3S41,91.2,44.2,94c3.2,2.7,8.4,2.7,11.6,0C59,91.2,65,89.4,69.1,90c3,0.4,6.1-0.9,8-3.2
	C75.2,88.4,72.6,89.4,70.1,89z"/>
</svg>
