<?xml version="1.0" encoding="utf-8"?>
<!-- Generator: Adobe Illustrator 27.0.1, SVG Export Plug-In . SVG Version: 6.00 Build 0)  -->
<svg version="1.1" id="Layer_1" xmlns="http://www.w3.org/2000/svg" xmlns:xlink="http://www.w3.org/1999/xlink" x="0px" y="0px"
	 viewBox="0 0 891.4 573.9" style="enable-background:new 0 0 891.4 573.9;" xml:space="preserve">
<style type="text/css">
	.st0{fill:#E6E6E6;}
	.st1{fill:#3F3D56;}
	.st2{fill:#FFFFFF;}
	.st3{fill:#FF6584;}
	.st4{fill:#EC64FF;}
	.st5{opacity:0.2;enable-background:new    ;}
	.st6{fill:#2F2E41;}
	.st7{fill:#CFCCE0;}
	.st8{fill:#6C63FF;}
</style>
<path class="st0" d="M68.7,461.8L62.4,437c-11.2-4.7-22.6-8.8-34.2-12.3l-0.8,11.5l-3.2-12.7C9.8,419.4,0,417.6,0,417.6
	s13.2,50.4,41,88.9l32.4,5.7l-25.1,3.6c3.5,4.2,7.3,8.2,11.2,11.9c40.4,37.5,85.4,54.7,100.5,38.4s-5.4-59.9-45.8-97.4
	c-12.5-11.6-28.3-21-44-28.3L68.7,461.8z"/>
<path class="st0" d="M128.6,434.8l7.4-24.5c-7.1-9.8-14.8-19.2-22.9-28.2l-6.6,9.5l3.8-12.5c-10.2-11-17.7-17.6-17.7-17.6
	s-14.7,50-10.8,97.3l24.8,21.6l-23.4-9.9c0.8,5.4,2,10.8,3.5,16c15.2,53,44.8,91,66.2,84.9s26.3-54,11.1-107
	c-4.7-16.4-13.4-32.5-23-47L128.6,434.8z"/>
<path class="st0" d="M821.7,487.6l14.1-8.9c0.7-7.9,0.9-15.7,0.7-23.6l-7.3,1.8l7.2-4.5c-0.3-9.7-1.2-16.2-1.2-16.2
	s-28.5,18.3-46.8,43.2l3,21.2l-7.3-14.8c-1.9,3-3.6,6.1-5.1,9.4c-15.1,32.5-16.8,63.8-3.7,69.9s36-15.3,51.1-47.9
	c4.7-10.1,7.3-21.7,8.7-32.9L821.7,487.6z"/>
<path class="st0" d="M850.4,519.3l16.7-0.3c4.7-6.4,8.9-13,12.9-19.8l-7.2-2.2l8.5-0.2c4.7-8.5,7.4-14.5,7.4-14.5
	s-33.9,0.9-62.4,12.8l-8.4,19.7l1.4-16.5c-3.2,1.6-6.3,3.4-9.2,5.4c-29.8,20-47.4,46-39.3,58s38.7,5.5,68.5-14.6
	c9.2-6.2,17.5-14.8,24.5-23.7L850.4,519.3z"/>
<rect x="2" y="571.3" class="st1" width="888" height="2.2"/>
<rect x="242.9" y="66.2" transform="matrix(0.4484 -0.8938 0.8938 0.4484 77.5165 260.5361)" class="st2" width="13.9" height="2.6"/>
<rect x="240.3" y="372.6" transform="matrix(0.9933 -0.1158 0.1158 0.9933 -41.7598 30.3893)" class="st1" width="0.8" height="4.1"/>
<rect x="241.3" y="408.8" transform="matrix(0.9491 -0.3149 0.3149 0.9491 -116.4801 97.452)" class="st2" width="4.1" height="0.8"/>
<rect x="241.2" y="387.6" transform="matrix(0.9982 -6.001702e-02 6.001702e-02 0.9982 -22.9509 15.2026)" class="st2" width="0.8" height="4.1"/>
<rect x="237.6" y="364.9" transform="matrix(0.9982 -6.001702e-02 6.001702e-02 0.9982 -21.5967 14.9469)" class="st2" width="0.8" height="4.1"/>
<rect x="288.9" y="381.8" transform="matrix(0.9272 -0.3745 0.3745 0.9272 -121.9857 136.7875)" class="st3" width="4.1" height="0.8"/>
<rect x="244.7" y="382.1" transform="matrix(0.2588 -0.9659 0.9659 0.2588 -186.5408 521.9021)" class="st3" width="4.1" height="0.8"/>
<rect x="286.5" y="70.6" class="st1" width="2.4" height="13.1"/>
<rect x="285" y="102" class="st2" width="2.4" height="13.1"/>
<rect x="282" y="375.7" transform="matrix(0.7071 -0.7071 0.7071 0.7071 -182.7422 310.9537)" class="st2" width="3.9" height="0.7"/>
<rect x="289.3" y="417.4" transform="matrix(0.7071 -0.7071 0.7071 0.7071 -210.104 328.2833)" class="st2" width="3.9" height="0.7"/>
<rect x="284.3" y="400.8" transform="matrix(0.2588 -0.9659 0.9659 0.2588 -175.3296 573.7929)" class="st3" width="3.9" height="0.7"/>
<rect x="285.3" y="385.9" transform="matrix(0.7071 -0.7071 0.7071 0.7071 -188.995 316.2462)" class="st3" width="3.9" height="0.7"/>
<path class="st1" d="M277.8,384.7c1.3-1.3,1.3-3.4,0-4.7c-1.3-1.3-3.4-1.3-4.7,0L167.6,485.5c-1.3,1.3-1.3,3.4,0,4.7
	c1.3,1.3,3.4,1.3,4.7,0l104.8-104.8"/>
<path class="st4" d="M288.6,371.4c-19.4-19.4-50.9-19.4-70.3,0c-19.4,19.4-19.4,50.9,0,70.3c19.4,19.4,50.9,19.4,70.3,0
	c5.7-5.7,10-12.8,12.3-20.5C306.4,403.5,301.6,384.4,288.6,371.4z M247.9,425.4c-3.4-1-6.5-2.8-9.1-5.3c-0.5-0.5-1-1-1.4-1.6
	c-7.2-8.8-5.8-21.8,3-29c8.8-7.2,21.8-5.8,29,3c7.2,8.8,5.8,21.8-3,29C261.2,425.8,254.3,427.2,247.9,425.4z"/>
<path class="st1" d="M175.9,94.9c0-6.1-5-11.1-11.1-11.1c-6.1,0-11.1,5-11.1,11.1v467.5c0,6.1,5,11.1,11.1,11.1
	c6.1,0,11.1-5,11.1-11.1V98.2"/>
<path class="st4" d="M317.4,90.8C274.3,9.3,173.4-21.8,91.9,21.3S-20.7,165.3,22.4,246.8s144.1,112.6,225.5,69.5
	c54.7-28.9,88.9-85.7,88.9-147.5C336.8,141.6,330.1,114.9,317.4,90.8z M203.9,229.1c-33.3,18.8-75.5,7-94.2-26.2s-7-75.5,26.2-94.2
	s75.5-7,94.2,26.2c5.9,10.4,8.9,22.1,8.9,34C239.2,193.8,225.7,216.9,203.9,229.1L203.9,229.1z"/>
<path class="st5" d="M169.4,325.1c-90.1,0-163.9-71.6-166.8-161.6c-0.1,1.8-0.1,3.6-0.1,5.4c0,92.1,74.7,166.8,166.8,166.8
	S336.3,261,336.3,168.8c0-1.8,0-3.6-0.1-5.4C333.4,253.5,259.6,325.1,169.4,325.1z"/>
<path class="st5" d="M169.9,85.6c-46,0-83.2,37.3-83.2,83.3c0,46,37.3,83.2,83.3,83.2c46,0,83.2-37.3,83.2-83.2
	C253.1,122.9,215.9,85.6,169.9,85.6z M203.9,229.1c-33.3,18.8-75.5,7-94.2-26.2s-7-75.5,26.2-94.2s75.5-7,94.2,26.2
	c5.9,10.4,8.9,22.1,8.9,34C239.2,193.8,225.7,216.9,203.9,229.1z"/>
<path class="st0" d="M317.4,88.8v27.8c0,5.6-4.5,10.2-10.1,10.2c-2.8,0-5.4-1.1-7.3-3.1v3.2c0,6.7-5.4,12.1-12.1,12.1
	c-6.7,0-12.1-5.4-12.1-12.1l0,0v-2.6c-4.2,3.7-10.6,3.4-14.3-0.8c-1.7-1.9-2.6-4.3-2.6-6.8l-0.5-29.5v-6.8c0-2.3-1.8-4.1-4.1-4.1
	c-2.3,0-4.1,1.8-4.1,4.1v6.8l-0.5,24.7c0,5.6-4.6,10.2-10.2,10.1c-5.6,0-10.1-4.5-10.1-10.1l-1.2-24.7V74.4c0-3.7-3-6.7-6.7-6.7
	c-3.7,0-6.7,3-6.7,6.7v12.6l-0.8,24.7c0,5.6-4.5,10.2-10.1,10.2c-3.1,0-6.1-1.4-8-3.9c-3.3,4.3-9.4,5.2-13.9,2v6.7
	c0,6.7-5.4,12.1-12.1,12.1c-6.7,0-12.1-5.4-12.1-12.1l0,0v-20.8c0,5.6-4.5,10.2-10.1,10.2c-4,0-7.6-2.3-9.3-6v16.7
	c0,6.7-5.4,12.1-12.1,12.1c-6.7,0-12.1-5.4-12.1-12.1V87.1h-0.1v39.7c0,6.7-5.4,12.1-12.1,12.1c-6.7,0-12.1-5.4-12.1-12.1v-16.5
	c-2.4,5.1-8.4,7.3-13.5,4.9c-3.6-1.7-5.9-5.3-5.9-9.2V87.1h-1v33.9c0,6.7-5.4,12.1-12.1,12.1c-6.7,0-12.1-5.4-12.1-12.1l0,0v-15
	c0,5.6-4.5,10.2-10.1,10.2c-5.6,0-10.2-4.5-10.2-10.1c0,0,0,0,0,0V83.6c46-79.9,148.1-107.3,228-61.3C280.5,38,302.7,61,317.4,88.8z
	"/>
<path class="st5" d="M102.2,133c-6.7,0-12.1-5.4-12.1-12.1c0,0,0,0,0,0v6.3c0,6.7,5.4,12.1,12.1,12.1c6.7,0,12.1-5.4,12.1-12.1v-6.3
	C114.2,127.6,108.8,133,102.2,133C102.2,133,102.2,133,102.2,133z"/>
<path class="st5" d="M126.4,133c-6.7,0-12.1-5.4-12.1-12.1c0,0,0,0,0,0v6.3c0,6.7,5.4,12.1,12.1,12.1c6.7,0,12.1-5.4,12.1-12.1v-6.3
	C138.4,127.6,133,133,126.4,133C126.4,133,126.4,133,126.4,133z"/>
<path class="st5" d="M90.1,104.4c-2.4,5.1-8.4,7.3-13.5,4.9c-3.6-1.7-5.9-5.3-5.9-9.2v6.3c0,5.6,4.5,10.2,10.1,10.2
	c3.9,0,7.5-2.3,9.2-5.9V104.4z"/>
<rect x="114.2" y="81.2" class="st5" width="0.1" height="6.3"/>
<path class="st5" d="M45.6,100.1c0,5.6-4.6,10.2-10.2,10.1c-5.6,0-10.1-4.5-10.1-10.1v6.3c0,5.6,4.6,10.2,10.2,10.1
	c5.6,0,10.1-4.5,10.1-10.1V100.1z"/>
<rect x="69.8" y="81.2" class="st5" width="1" height="6.3"/>
<path class="st5" d="M57.7,127.2c-6.7,0-12.1-5.4-12.1-12.1c0,0,0,0,0,0v6.3c0,6.7,5.4,12.1,12.1,12.1s12.1-5.4,12.1-12.1l0,0v-6.3
	C69.8,121.8,64.4,127.2,57.7,127.2C57.7,127.2,57.7,127.2,57.7,127.2z"/>
<path class="st5" d="M169.9,133c-6.7,0-12.1-5.4-12.1-12.1c0,0,0,0,0,0v6.3c0,6.7,5.4,12.1,12.1,12.1c6.7,0,12.1-5.4,12.1-12.1v-6.3
	C182,127.6,176.6,133,169.9,133C169.9,133,169.9,133,169.9,133z"/>
<path class="st5" d="M258.4,74.4c0-2.3-1.8-4.1-4.1-4.1s-4.1,1.8-4.1,4.1v6.3c0-2.3,1.8-4.1,4.1-4.1c2.3,0,4.1,1.8,4.1,4.1
	c0,0,0,0,0,0V74.4z"/>
<path class="st5" d="M157.8,100.1c0,5.6-4.5,10.2-10.1,10.2c-4,0-7.6-2.3-9.3-6v6.3c2.3,5.1,8.3,7.4,13.4,5.1c3.6-1.6,6-5.3,6-9.3
	V100.1z"/>
<path class="st5" d="M239.6,116.1c-5.6,0-10.2-4.5-10.2-10.2c0,0,0,0,0,0l-1.2-24.7v6.3l1.2,24.7c0,5.6,4.6,10.2,10.2,10.1
	c5.6,0,10.1-4.5,10.1-10.1l0.5-24.7v-6.3l-0.5,24.7C249.7,111.5,245.2,116.1,239.6,116.1C239.6,116.1,239.6,116.1,239.6,116.1z"/>
<path class="st5" d="M307.3,120.9c-2.8,0-5.4-1.1-7.3-3.1v3.2c0,6.7-5.4,12.1-12.1,12.1c-6.7,0-12.1-5.4-12.1-12.1l0,0v-2.6
	c-4.2,3.7-10.6,3.4-14.3-0.8c-1.7-1.9-2.6-4.3-2.6-6.8l-0.5-29.5v6.3l0.5,29.5c0,5.6,4.5,10.1,10.1,10.2c2.5,0,4.9-0.9,6.8-2.6v2.6
	c0,6.7,5.4,12.1,12.1,12.1c6.7,0,12.1-5.4,12.1-12.1l0,0v-3.2c3.9,4,10.3,4.2,14.3,0.3c2-1.9,3.1-4.6,3.1-7.3v-6.3
	C317.4,116.4,312.9,120.9,307.3,120.9C307.3,120.9,307.3,120.9,307.3,120.9z"/>
<path class="st5" d="M203.8,116.1c-3.1,0-6.1-1.4-8-3.9c-3.3,4.3-9.4,5.2-13.9,2v6.3c4.4,3.1,10.5,2.3,13.9-2
	c3.5,4.4,9.8,5.2,14.2,1.7c2.5-1.9,3.9-4.9,3.9-8l0.8-24.7v-6.3l-0.8,24.7C213.9,111.5,209.4,116.1,203.8,116.1
	C203.8,116.1,203.8,116.1,203.8,116.1z"/>
<path class="st5" d="M228.2,68.6c0-3.7-3-6.7-6.7-6.7c-3.7,0-6.7,3-6.7,6.7c0,0,0,0,0,0v6.3c0-3.7,3-6.7,6.7-6.7
	c3.7,0,6.7,3,6.7,6.7c0,0,0,0,0,0V68.6z"/>
<rect x="113.1" y="69.9" class="st1" width="2.4" height="13.1"/>
<rect x="158.8" y="62.9" class="st1" width="2.4" height="13.1"/>
<rect x="100.8" y="114.1" class="st1" width="2.4" height="13.1"/>
<rect x="190.7" y="94.8" transform="matrix(0.569 -0.8224 0.8224 0.569 6.075 203.5856)" class="st1" width="13.1" height="2.4"/>
<rect x="77.1" y="69.2" transform="matrix(0.6205 -0.7842 0.7842 0.6205 -29.6444 90.1142)" class="st1" width="2.4" height="13.1"/>
<rect x="219.3" y="20.3" transform="matrix(0.6205 -0.7842 0.7842 0.6205 62.6201 183.0785)" class="st1" width="2.4" height="13.1"/>
<rect x="50.5" y="82.7" transform="matrix(0.6205 -0.7842 0.7842 0.6205 -50.3581 74.3941)" class="st1" width="2.4" height="13.1"/>
<rect x="122.1" y="39.2" class="st2" width="2.4" height="13.1"/>
<rect x="55.8" y="106.4" class="st2" width="2.4" height="13.1"/>
<rect x="169" y="20.3" class="st2" width="2.4" height="13.1"/>
<rect x="174.3" y="70.1" transform="matrix(0.4484 -0.8938 0.8938 0.4484 35.968 200.9532)" class="st2" width="13.1" height="2.4"/>
<rect x="163.2" y="118.5" transform="matrix(0.4484 -0.8938 0.8938 0.4484 -13.3929 217.6852)" class="st2" width="13.1" height="2.4"/>
<rect x="143.3" y="86.6" transform="matrix(0.6634 -0.7483 0.7483 0.6634 -21.0082 139.4903)" class="st2" width="2.4" height="13.1"/>
<rect x="95.5" y="30" transform="matrix(0.6634 -0.7483 0.7483 0.6634 5.2151 84.6187)" class="st2" width="2.4" height="13.1"/>
<rect x="254.6" y="51.7" transform="matrix(0.6634 -0.7483 0.7483 0.6634 42.4878 211.0006)" class="st2" width="2.4" height="13.1"/>
<rect x="196" y="9.2" transform="matrix(0.6634 -0.7483 0.7483 0.6634 54.6354 152.8886)" class="st2" width="2.4" height="13.1"/>
<rect x="140.4" y="62.9" class="st3" width="2.4" height="13.1"/>
<rect x="269.1" y="75.4" transform="matrix(0.3908 -0.9205 0.9205 0.3908 97.3385 300.3788)" class="st3" width="13.1" height="2.4"/>
<rect x="95.5" y="83.7" transform="matrix(0.866 -0.5 0.5 0.866 -32.1469 60.414)" class="st3" width="2.4" height="13.1"/>
<rect x="233.8" y="74.5" transform="matrix(0.866 -0.5 0.5 0.866 -9.0221 128.3397)" class="st3" width="2.4" height="13.1"/>
<rect x="147.7" y="26.6" transform="matrix(0.866 -0.5 0.5 0.866 3.3835 78.8841)" class="st3" width="2.4" height="13.1"/>
<rect x="250.2" y="24.2" transform="matrix(0.866 -0.5 0.5 0.866 18.3287 129.8227)" class="st3" width="2.4" height="13.1"/>
<rect x="117.2" y="13.5" transform="matrix(0.866 -0.5 0.5 0.866 5.8307 61.9004)" class="st3" width="2.4" height="13.1"/>
<rect x="200.9" y="36.8" class="st3" width="2.4" height="13.1"/>
<rect x="61.6" y="58.5" class="st3" width="2.4" height="13.1"/>
<path class="st5" d="M220.4,439.4c-19-19-19.5-49.6-1.1-69.2c-0.4,0.4-0.8,0.7-1.2,1.1c-19.4,19.4-19.4,50.9,0,70.3
	c19.4,19.4,50.9,19.4,70.3,0c0,0,0,0,0,0c0.4-0.4,0.8-0.8,1.1-1.2C270,458.8,239.4,458.3,220.4,439.4z"/>
<path class="st5" d="M273,387c-10.8-10.8-28.3-10.8-39.1,0c-10.8,10.8-10.8,28.3,0,39.1c10.8,10.8,28.3,10.8,39.1,0c0,0,0,0,0,0
	C283.8,415.3,283.8,397.8,273,387z M268,420.2c-8.1,8-21.1,8-29.2,0c-0.5-0.5-1-1-1.4-1.6c-7.2-8.8-5.8-21.8,3-29
	c8.8-7.2,21.8-5.8,29,3C276.1,400.8,275.5,412.7,268,420.2z"/>
<path class="st0" d="M302,420.2l-5.9,5.9c-1.2,1.2-3.1,1.2-4.3,0c-0.6-0.6-0.9-1.4-0.9-2.2l-0.7,0.7c-1.4,1.4-3.7,1.4-5.1,0
	c-1.4-1.4-1.4-3.7,0-5.1l0.6-0.6c-1.7-0.1-2.9-1.5-2.9-3.2c0-0.7,0.4-1.5,0.9-2l6.1-6.3l1.4-1.4c0.5-0.5,0.5-1.3,0-1.7
	c-0.5-0.5-1.3-0.5-1.7,0l-1.4,1.4l-5.3,5.1c-1.2,1.2-3.1,1.2-4.3,0s-1.2-3.1,0-4.3l4.9-5.5l2.7-2.7c0.8-0.8,0.8-2.1,0-2.8
	c-0.8-0.8-2-0.8-2.8,0l-2.7,2.7l-5.4,5c-2.4-1.4-5-2.6-7.6-3.4c-0.4-0.4-0.7-1-0.8-1.6l-1.4,1.4c-1.4,1.4-3.7,1.4-5.1,0
	c-1.4-1.4-1.4-3.7,0-5.1l4.4-4.4c-1.2,1.2-3.1,1.2-4.3,0c-0.8-0.8-1.1-2.1-0.7-3.2l-3.5,3.5c-1.4,1.4-3.7,1.4-5.1,0
	c-1.4-1.4-1.4-3.7,0-5.1l8.4-8.4l0,0l-8.4,8.4c-1.4,1.4-3.7,1.4-5.1,0c-1.4-1.4-1.4-3.7,0-5.1l3.5-3.5c-1.6,0.6-3.3-0.2-3.9-1.8
	c-0.4-1.1-0.1-2.3,0.7-3.2l4-4l-0.2-0.2l-7.1,7.1c-1.4,1.4-3.7,1.4-5.1,0c-1.4-1.4-1.4-3.7,0-5.1l3.2-3.2c-1.2,1.2-3.1,1.2-4.3,0
	c-1.2-1.2-1.2-3.1,0-4.3l0,0l4.7-4.7c26.5-7.1,53.8,8.6,61,35.1C304.9,401.7,304.7,411.2,302,420.2L302,420.2z"/>
<path class="st5" d="M247.3,384.1c-1.4-1.4-1.4-3.7,0-5.1c0,0,0,0,0,0l-1.3,1.3c-1.4,1.4-1.4,3.7,0,5.1c1.4,1.4,3.7,1.4,5.1,0
	l1.3-1.3C251,385.5,248.7,385.5,247.3,384.1C247.3,384.1,247.3,384.1,247.3,384.1z"/>
<path class="st5" d="M252.4,389.2c-1.4-1.4-1.4-3.7,0-5.1c0,0,0,0,0,0l-1.3,1.3c-1.4,1.4-1.4,3.7,0,5.1c1.4,1.4,3.7,1.4,5.1,0
	l1.3-1.3C256.1,390.6,253.8,390.6,252.4,389.2C252.4,389.2,252.4,389.2,252.4,389.2z"/>
<path class="st5" d="M250.8,375.5c-1.6,0.6-3.3-0.2-3.9-1.8c-0.4-1.1-0.1-2.3,0.7-3.2l-1.3,1.3c-1.2,1.2-1.2,3.1,0,4.3
	c0.8,0.8,2.1,1.1,3.2,0.7L250.8,375.5z"/>
<rect x="259.1" y="376.4" transform="matrix(0.7071 -0.7071 0.7071 0.7071 -189.9931 294.1478)" class="st5" width="1.9" height="0"/>
<path class="st5" d="M242.3,365.3c-1.2,1.2-3.1,1.2-4.3,0c-1.2-1.2-1.2-3.1,0-4.3l0,0l-1.3,1.3c-1.2,1.2-1.2,3.1,0,4.3
	c1.2,1.2,3.1,1.2,4.3,0L242.3,365.3z"/>
<rect x="249.9" y="367" transform="matrix(0.7071 -0.7071 0.7071 0.7071 -186.1507 284.8712)" class="st5" width="1.9" height="0.3"/>
<path class="st5" d="M239.1,373.5c-1.4-1.4-1.4-3.7,0-5.1c0,0,0,0,0,0l-1.3,1.3c-1.4,1.4-1.4,3.7,0,5.1c1.4,1.4,3.7,1.4,5.1,0
	l1.3-1.3C242.8,374.9,240.5,374.9,239.1,373.5C239.1,373.5,239.1,373.5,239.1,373.5z"/>
<path class="st5" d="M261.5,398.4c-1.4-1.4-1.4-3.7,0-5.1c0,0,0,0,0,0l-1.3,1.3c-1.4,1.4-1.4,3.7,0,5.1c1.4,1.4,3.7,1.4,5.1,0l0,0
	l1.3-1.3C265.2,399.8,263,399.8,261.5,398.4C261.5,398.4,261.5,398.4,261.5,398.4z"/>
<path class="st5" d="M292.6,404.7c0.5-0.5,0.5-1.3,0-1.7c-0.5-0.5-1.3-0.5-1.7,0l-1.3,1.3c0.5-0.5,1.3-0.5,1.7,0
	c0.5,0.5,0.5,1.3,0,1.7L292.6,404.7z"/>
<path class="st5" d="M265.9,388.9c-1.2,1.2-3.1,1.2-4.3,0c-0.8-0.8-1.1-2.1-0.7-3.2l-1.3,1.3c-0.6,1.6,0.2,3.3,1.8,3.9
	c1.1,0.4,2.4,0.2,3.2-0.7L265.9,388.9z"/>
<path class="st5" d="M279.8,409.5c-1.2-1.2-1.2-3.1,0-4.3c0,0,0,0,0,0l4.9-5.5l-1.3,1.3l-4.9,5.5c-1.2,1.2-1.2,3.1,0,4.3
	s3.1,1.2,4.3,0l5.3-5.1l1.3-1.3l-5.3,5.1C282.9,410.7,281,410.7,279.8,409.5C279.8,409.5,279.8,409.5,279.8,409.5z"/>
<path class="st5" d="M293.1,424.8c-0.6-0.6-0.9-1.4-0.9-2.2l-0.7,0.7c-1.4,1.4-3.7,1.4-5.1,0c-1.4-1.4-1.4-3.7,0-5.1l0.6-0.6
	c-1.7-0.1-2.9-1.5-2.9-3.2c0-0.7,0.4-1.5,0.9-2l6.1-6.3l-1.3,1.3l-6.1,6.3c-1.2,1.2-1.2,3.1,0,4.3c0.5,0.5,1.2,0.8,2,0.9l-0.6,0.6
	c-1.4,1.4-1.4,3.7,0,5.1c1.4,1.4,3.7,1.4,5.1,0l0.7-0.7c0,1.7,1.3,3.1,3,3.1c0.8,0,1.6-0.3,2.2-0.9l1.3-1.3
	C296.2,426,294.2,426,293.1,424.8C293.1,424.8,293.1,424.8,293.1,424.8z"/>
<path class="st5" d="M272.3,402c0.2-1.7-1-3.2-2.6-3.4c-0.2,0-0.5,0-0.7,0c-0.4-0.4-0.7-1-0.8-1.6l-1.3,1.3c2.3,0.6,4,2.6,4.2,5
	c1.2,1.2,3.1,1.2,4.3,0c0,0,0,0,0,0l5.4-5l1.3-1.3l-5.4,5C275.4,403.1,273.4,403.1,272.3,402C272.3,402,272.3,402,272.3,402z"/>
<path class="st5" d="M287.4,397.1c0.8-0.8,0.8-2.1,0-2.8c-0.8-0.8-2.1-0.8-2.8,0c0,0,0,0,0,0l-1.3,1.3c0.8-0.8,2.1-0.8,2.8,0
	c0.8,0.8,0.8,2.1,0,2.8c0,0,0,0,0,0L287.4,397.1z"/>
<rect x="259.8" y="374.4" transform="matrix(0.7071 -0.7071 0.7071 0.7071 -188.3141 294.8516)" class="st1" width="3.9" height="0.7"/>
<rect x="270.9" y="382.5" transform="matrix(0.7071 -0.7071 0.7071 0.7071 -190.8262 305.0972)" class="st1" width="3.9" height="0.7"/>
<rect x="281.9" y="376.5" transform="matrix(0.7071 -0.7071 0.7071 0.7071 -183.3617 311.118)" class="st1" width="3.9" height="0.7"/>
<rect x="247.9" y="381.1" transform="matrix(0.7071 -0.7071 0.7071 0.7071 -196.5649 288.3886)" class="st1" width="3.9" height="0.7"/>
<rect x="273.2" y="396" transform="matrix(0.9838 -0.1792 0.1792 0.9838 -66.5606 55.704)" class="st1" width="3.9" height="0.7"/>
<rect x="289.2" y="389" transform="matrix(0.9838 -0.1792 0.1792 0.9838 -65.0476 58.4574)" class="st1" width="3.9" height="0.7"/>
<rect x="254" y="365" transform="matrix(0.9933 -0.1158 0.1158 0.9933 -40.777 31.9103)" class="st1" width="0.7" height="3.9"/>
<rect x="245.5" y="362.3" transform="matrix(0.9933 -0.1158 0.1158 0.9933 -40.5153 30.9122)" class="st1" width="0.7" height="3.9"/>
<rect x="268.2" y="369.8" transform="matrix(0.7071 -0.7071 0.7071 0.7071 -182.6221 299.4188)" class="st2" width="3.9" height="0.7"/>
<rect x="289.2" y="383.8" transform="matrix(0.7071 -0.7071 0.7071 0.7071 -186.3708 318.3686)" class="st2" width="3.9" height="0.7"/>
<rect x="297.2" y="403.8" transform="matrix(0.7071 -0.7071 0.7071 0.7071 -198.1698 329.8833)" class="st2" width="3.9" height="0.7"/>
<rect x="240" y="370" transform="matrix(0.7071 -0.7071 0.7071 0.7071 -191.0069 279.5838)" class="st2" width="3.9" height="0.7"/>
<rect x="274.9" y="387.3" transform="matrix(0.9491 -0.3149 0.3149 0.9491 -108.0043 106.9114)" class="st2" width="3.9" height="0.7"/>
<rect x="262.4" y="395.2" transform="matrix(0.9491 -0.3149 0.3149 0.9491 -111.1142 103.3621)" class="st2" width="3.9" height="0.7"/>
<rect x="264.3" y="382.7" transform="matrix(0.9982 -6.001702e-02 6.001702e-02 0.9982 -22.6073 16.5747)" class="st2" width="0.7" height="3.9"/>
<rect x="266.1" y="360.7" transform="matrix(0.9982 -6.001702e-02 6.001702e-02 0.9982 -21.2825 16.6452)" class="st2" width="0.7" height="3.9"/>
<rect x="267.1" y="378.7" transform="matrix(0.7071 -0.7071 0.7071 0.7071 -189.2216 301.2235)" class="st3" width="3.9" height="0.7"/>
<rect x="291.1" y="412.7" transform="matrix(0.7071 -0.7071 0.7071 0.7071 -206.2338 328.1525)" class="st3" width="3.9" height="0.7"/>
<rect x="295.1" y="395.7" transform="matrix(0.7071 -0.7071 0.7071 0.7071 -193.0415 326.0017)" class="st3" width="3.9" height="0.7"/>
<rect x="253.2" y="373.6" transform="matrix(0.2588 -0.9659 0.9659 0.2588 -172.0836 523.5872)" class="st3" width="3.9" height="0.7"/>
<rect x="276.2" y="372.5" transform="matrix(0.2588 -0.9659 0.9659 0.2588 -154.0233 545.0851)" class="st3" width="3.9" height="0.7"/>
<rect x="272.6" y="363.4" transform="matrix(0.2588 -0.9659 0.9659 0.2588 -147.8814 534.7403)" class="st3" width="3.9" height="0.7"/>
<rect x="251.4" y="361.1" transform="matrix(0.7071 -0.7071 0.7071 0.7071 -181.4216 284.9873)" class="st3" width="3.9" height="0.7"/>
<path class="st1" d="M775.4,206.9c0-4.4-3.6-8-8-8s-8,3.6-8,8v358.6c0,4.4,3.6,8,8,8s8-3.6,8-8V209.3"/>
<path class="st4" d="M877.4,226c-31.1-58.7-104-81.1-162.7-50c-51.2,27.1-75.8,86.9-58.5,142.2h14.9c3,0,5.5,3.3,5.5,7.4h2.7
	c3,0,5.5,3.3,5.5,7.4c0,4.1-2.5,7.4-5.5,7.4h-2.7c0,0.6-0.1,1.2-0.2,1.9h12.5c3,0,5.5,3.4,5.5,7.4c0,4.1-2.5,7.4-5.5,7.4H677
	c41.4,52,117.2,60.5,169.1,19C891.3,340.2,904.5,277.1,877.4,226L877.4,226z M795.6,325.7c-7.5,4.2-15.9,6.4-24.5,6.4
	c-1.7,0-3.4-0.1-5.2-0.3c-27.4-2.9-47.3-27.4-44.4-54.8c2.9-27.4,27.4-47.3,54.8-44.4c27.4,2.9,47.3,27.4,44.4,54.8
	C819,303.5,809.6,317.8,795.6,325.7L795.6,325.7z"/>
<path class="st5" d="M694.1,347.3c0.2-0.8,0.3-1.7,0.3-2.5c0-4.1-2.5-7.4-5.5-7.4h-5.1c-0.8,1.8-2.5,3-4.5,3.1h-2.7
	c0,0.6-0.1,1.2-0.2,1.9h12.5C691.3,342.4,693.3,344.5,694.1,347.3z"/>
<path class="st5" d="M679.3,325.7c2.4,0,4.4,2.1,5.1,4.9c0.2-0.8,0.3-1.7,0.3-2.5c0-4.1-2.5-7.4-5.5-7.4h-2.7c0-4.1-2.5-7.4-5.5-7.4
	h-14.9c-3.4-10.9-5.2-22.2-5.4-33.7c0,0.9,0,1.8,0,2.7c0,12.2,1.8,24.3,5.5,36h14.9c3,0,5.5,3.3,5.5,7.4H679.3z"/>
<path class="st5" d="M771.1,397.6c-34.3,0-67.1-14.6-89.9-40.3H677c41.4,52,117.1,60.5,169.1,19.1c28.6-22.8,45.3-57.5,45.3-94.1
	c0-0.8,0-1.5,0-2.2C889.9,345.4,836.4,397.6,771.1,397.6z"/>
<path class="st5" d="M771.1,222.4c-33.1,0-59.9,26.8-59.9,59.9s26.8,59.9,59.9,59.9c33.1,0,59.9-26.8,59.9-59.9
	C830.9,249.2,804.1,222.4,771.1,222.4z M795.6,325.7c-7.5,4.2-15.9,6.4-24.5,6.4c-1.7,0-3.4-0.1-5.2-0.3
	c-27.4-2.9-47.3-27.4-44.4-54.8c2.9-27.4,27.4-47.3,54.8-44.4c27.4,2.9,47.3,27.4,44.4,54.8C819,303.5,809.6,317.8,795.6,325.7
	L795.6,325.7z"/>
<path class="st0" d="M877.4,224v20c0,4-3.3,7.3-7.3,7.3c-2,0-3.9-0.8-5.3-2.3v2.3c0,4.8-3.9,8.7-8.7,8.7s-8.7-3.9-8.7-8.7
	c0,0,0,0,0,0v-1.9c-3,2.7-7.6,2.5-10.3-0.5c-1.2-1.3-1.9-3.1-1.9-4.9l-0.3-21.3v-4.9c0-1.6-1.3-3-3-3s-3,1.3-3,3c0,0,0,0,0,0v4.9
	l-0.3,17.8c0,4-3.3,7.3-7.3,7.3c-4,0-7.3-3.3-7.3-7.3l-0.9-17.8v-9.1c0-2.7-2.2-4.9-4.9-4.9c-2.7,0-4.9,2.2-4.9,4.9v9.1l-0.5,17.8
	c0,4-3.3,7.3-7.3,7.3c-2.3,0-4.4-1-5.8-2.8c-2.4,3.1-6.8,3.7-10,1.5v4.9c0,4.8-3.9,8.7-8.7,8.7c-4.8,0-8.7-3.9-8.7-8.7v-15
	c0,4-3.3,7.3-7.3,7.3c-2.9,0-5.5-1.7-6.7-4.3v12c0,4.8-3.9,8.7-8.7,8.7c-4.8,0-8.7-3.9-8.7-8.7v-28.6h0v28.6c0,4.8-3.9,8.7-8.7,8.7
	s-8.7-3.9-8.7-8.7c0,0,0,0,0,0v-11.9c-1.7,3.7-6.1,5.2-9.7,3.5c-2.6-1.2-4.2-3.8-4.2-6.6v-13.6h-0.7v24.4c0,4.8-3.9,8.7-8.7,8.7
	c-4.8,0-8.7-3.9-8.7-8.7v-10.8c0,4-3.3,7.3-7.3,7.3c-4,0-7.3-3.3-7.3-7.3v-16.1c33.2-57.6,106.8-77.4,164.4-44.2
	C850.8,187.3,866.8,203.9,877.4,224L877.4,224z"/>
<path class="st5" d="M722.2,255.8c-4.8,0-8.7-3.9-8.7-8.7c0,0,0,0,0,0v4.5c0,4.8,3.9,8.7,8.7,8.7c4.8,0,8.7-3.9,8.7-8.7v-4.5
	C730.9,251.9,727,255.8,722.2,255.8C722.2,255.8,722.2,255.8,722.2,255.8z"/>
<path class="st5" d="M739.6,255.8c-4.8,0-8.7-3.9-8.7-8.7c0,0,0,0,0,0v4.5c0,4.8,3.9,8.7,8.7,8.7c4.8,0,8.7-3.9,8.7-8.7v-4.5
	C748.3,251.9,744.4,255.8,739.6,255.8C739.6,255.8,739.6,255.8,739.6,255.8z"/>
<path class="st5" d="M713.5,235.2c-1.7,3.7-6.1,5.2-9.7,3.5c-2.6-1.2-4.2-3.8-4.2-6.6v4.5c0,4,3.3,7.3,7.3,7.3
	c2.8,0,5.4-1.6,6.6-4.2V235.2z"/>
<rect x="730.9" y="218.5" class="st5" width="0" height="4.5"/>
<path class="st5" d="M681.4,232.1c0,4-3.3,7.3-7.3,7.3c-4,0-7.3-3.3-7.3-7.3v4.5c0,4,3.3,7.3,7.3,7.3c4,0,7.3-3.3,7.3-7.3V232.1z"/>
<rect x="698.8" y="218.5" class="st5" width="0.7" height="4.5"/>
<path class="st5" d="M690.1,251.7c-4.8,0-8.7-3.9-8.7-8.7c0,0,0,0,0,0v4.5c0,4.8,3.9,8.7,8.7,8.7c4.8,0,8.7-3.9,8.7-8.7V243
	C698.8,247.8,694.9,251.7,690.1,251.7C690.1,251.7,690.1,251.7,690.1,251.7z"/>
<path class="st5" d="M771,255.8c-4.8,0-8.7-3.9-8.7-8.7c0,0,0,0,0,0v4.5c0,4.8,3.9,8.7,8.7,8.7s8.7-3.9,8.7-8.7c0,0,0,0,0,0v-4.5
	C779.7,251.9,775.8,255.8,771,255.8C771,255.8,771,255.8,771,255.8z"/>
<path class="st5" d="M834.9,213.6c0-1.6-1.3-3-3-3s-3,1.3-3,3c0,0,0,0,0,0v4.5c0-1.6,1.3-3,3-3s3,1.3,3,3c0,0,0,0,0,0V213.6z"/>
<path class="st5" d="M762.3,232.1c0,4-3.3,7.3-7.3,7.3c-2.9,0-5.5-1.7-6.7-4.3v4.5c1.7,3.7,6,5.3,9.7,3.7c2.6-1.2,4.3-3.8,4.3-6.7
	V232.1z"/>
<path class="st5" d="M821.3,243.6c-4,0-7.3-3.3-7.3-7.3c0,0,0,0,0,0l-0.9-17.8v4.5l0.9,17.8c0,4,3.3,7.3,7.3,7.3
	c4,0,7.3-3.3,7.3-7.3l0.3-17.8v-4.5l-0.3,17.8C828.6,240.4,825.3,243.6,821.3,243.6C821.3,243.6,821.3,243.6,821.3,243.6z"/>
<path class="st5" d="M870.1,247.1c-2,0-3.9-0.8-5.3-2.3v2.3c0,4.8-3.9,8.7-8.7,8.7s-8.7-3.9-8.7-8.7c0,0,0,0,0,0v-1.9
	c-3,2.7-7.6,2.5-10.3-0.5c-1.2-1.3-1.9-3.1-1.9-4.9l-0.3-21.3v4.5l0.3,21.3c0,4,3.3,7.3,7.3,7.3c1.8,0,3.6-0.7,4.9-1.9v1.9
	c0,4.8,3.9,8.7,8.7,8.7c4.8,0,8.7-3.9,8.7-8.7v-2.3c2.8,2.9,7.4,3,10.3,0.2c1.4-1.4,2.3-3.3,2.3-5.3v-4.5
	C877.4,243.8,874.2,247.1,870.1,247.1C870.1,247.1,870.1,247.1,870.1,247.1z"/>
<path class="st5" d="M795.5,243.6c-2.2,0-4.4-1-5.8-2.8c-2.4,3.1-6.8,3.7-10,1.5v4.5c3.2,2.3,7.6,1.6,10-1.5
	c2.5,3.2,7.1,3.7,10.3,1.2c1.8-1.4,2.8-3.5,2.8-5.8l0.5-17.8v-4.5l-0.5,17.8C802.8,240.4,799.5,243.6,795.5,243.6
	C795.5,243.6,795.5,243.6,795.5,243.6z"/>
<path class="st5" d="M813.1,209.4c0-2.7-2.2-4.9-4.9-4.9c-2.7,0-4.9,2.2-4.9,4.9c0,0,0,0,0,0v4.5c0-2.7,2.2-4.9,4.9-4.9
	c2.7,0,4.9,2.2,4.9,4.9c0,0,0,0,0,0V209.4z"/>
<rect x="730.1" y="210.3" class="st1" width="1.7" height="9.4"/>
<rect x="763" y="205.3" class="st1" width="1.7" height="9.4"/>
<rect x="855.1" y="210.8" class="st1" width="1.7" height="9.4"/>
<rect x="721.2" y="242.2" class="st1" width="1.7" height="9.4"/>
<rect x="786.1" y="228.3" transform="matrix(0.569 -0.8224 0.8224 0.569 152.3866 749.0573)" class="st1" width="9.4" height="1.7"/>
<rect x="704.1" y="209.8" transform="matrix(0.6205 -0.7842 0.7842 0.6205 99.3185 634.2509)" class="st1" width="1.7" height="9.4"/>
<rect x="806.6" y="174.6" transform="matrix(0.6205 -0.7842 0.7842 0.6205 165.8573 701.2943)" class="st1" width="1.7" height="9.4"/>
<rect x="684.9" y="219.6" transform="matrix(0.6205 -0.7842 0.7842 0.6205 84.3758 622.9124)" class="st1" width="1.7" height="9.4"/>
<rect x="736.5" y="188.2" class="st2" width="1.7" height="9.4"/>
<rect x="688.7" y="236.7" class="st2" width="1.7" height="9.4"/>
<rect x="770.4" y="174.6" class="st2" width="1.7" height="9.4"/>
<rect x="854.1" y="233.5" class="st2" width="1.7" height="9.4"/>
<rect x="774.2" y="210.5" transform="matrix(0.4484 -0.8938 0.8938 0.4484 240.6813 812.7737)" class="st2" width="9.4" height="1.7"/>
<rect x="766.2" y="245.4" transform="matrix(0.4484 -0.8938 0.8938 0.4484 205.0835 824.8404)" class="st2" width="9.4" height="1.7"/>
<rect x="862.4" y="229.7" transform="matrix(0.4484 -0.8938 0.8938 0.4484 272.2045 902.2226)" class="st2" width="9.4" height="1.7"/>
<rect x="751.9" y="222.4" transform="matrix(0.6634 -0.7483 0.7483 0.6634 83.4718 639.6884)" class="st2" width="1.7" height="9.4"/>
<rect x="717.3" y="181.6" transform="matrix(0.6634 -0.7483 0.7483 0.6634 102.3834 600.1163)" class="st2" width="1.7" height="9.4"/>
<rect x="832.1" y="197.2" transform="matrix(0.6634 -0.7483 0.7483 0.6634 129.2635 691.2597)" class="st2" width="1.7" height="9.4"/>
<rect x="789.9" y="166.6" transform="matrix(0.6634 -0.7483 0.7483 0.6634 138.0241 649.3508)" class="st2" width="1.7" height="9.4"/>
<rect x="749.8" y="205.3" class="st3" width="1.7" height="9.4"/>
<rect x="842.6" y="214.3" transform="matrix(0.3908 -0.9205 0.9205 0.3908 318.0626 910.9913)" class="st3" width="9.4" height="1.7"/>
<rect x="717.3" y="220.3" transform="matrix(0.866 -0.5 0.5 0.866 -16.2639 389.2488)" class="st3" width="1.7" height="9.4"/>
<rect x="817.1" y="213.6" transform="matrix(0.866 -0.5 0.5 0.866 0.4131 438.2351)" class="st3" width="1.7" height="9.4"/>
<rect x="755" y="179.1" transform="matrix(0.866 -0.5 0.5 0.866 9.3599 402.5687)" class="st3" width="1.7" height="9.4"/>
<rect x="829" y="177.4" transform="matrix(0.866 -0.5 0.5 0.866 20.1378 439.3047)" class="st3" width="1.7" height="9.4"/>
<rect x="733" y="169.7" transform="matrix(0.866 -0.5 0.5 0.866 11.1246 390.3209)" class="st3" width="1.7" height="9.4"/>
<rect x="793.4" y="186.4" class="st3" width="1.7" height="9.4"/>
<rect x="692.9" y="202.1" class="st3" width="1.7" height="9.4"/>
<circle class="st6" cx="354.3" cy="504.2" r="42"/>
<rect x="368.3" y="534.2" transform="matrix(0.984 -0.1781 0.1781 0.984 -91.1962 75.4776)" class="st6" width="12.8" height="22.9"/>
<rect x="343.2" y="538.7" transform="matrix(0.984 -0.1781 0.1781 0.984 -92.408 71.0759)" class="st6" width="12.8" height="22.9"/>
<ellipse transform="matrix(0.7631 -0.6463 0.6463 0.7631 -281.8596 359.5036)" class="st6" cx="349.5" cy="564.2" rx="10.6" ry="4"/>
<ellipse transform="matrix(0.7631 -0.6463 0.6463 0.7631 -273.1558 374.3438)" class="st6" cx="374.1" cy="559.8" rx="10.6" ry="4"/>
<circle class="st2" cx="351.3" cy="493.9" r="14.4"/>
<circle class="st1" cx="345.4" cy="488.8" r="4.8"/>
<path class="st7" d="M387.4,458.5c0.6-15.6-12.8-28.7-29.9-29.4s-31.6,11.3-32.2,26.9s11.3,19.1,28.5,19.8S386.8,474,387.4,458.5z"
	/>
<ellipse transform="matrix(0.2234 -0.9747 0.9747 0.2234 -238.989 693.08)" class="st6" cx="315.5" cy="496.5" rx="6.6" ry="21"/>
<ellipse transform="matrix(0.2234 -0.9747 0.9747 0.2234 -188.3135 784.1143)" class="st6" cx="397.9" cy="510.2" rx="6.6" ry="21"/>
<path class="st2" d="M365.8,520.7c0.9,5.2-2.5,10.2-7.7,11.1s-10.2-2.5-11.1-7.7c0,0,0,0,0,0c-0.9-5.2,3.1-7,8.3-8
	C360.4,515.2,364.9,515.5,365.8,520.7z"/>
<ellipse transform="matrix(0.357 -0.9341 0.9341 0.357 44.7073 776.9721)" class="st6" cx="586.7" cy="356" rx="21.5" ry="6.8"/>
<circle class="st6" cx="561.6" cy="512.3" r="43.1"/>
<rect x="542" y="546.1" class="st6" width="13.1" height="23.4"/>
<rect x="568.2" y="546.1" class="st6" width="13.1" height="23.4"/>
<ellipse class="st6" cx="552.9" cy="569.8" rx="10.9" ry="4.1"/>
<ellipse class="st6" cx="579.1" cy="569.3" rx="10.9" ry="4.1"/>
<circle class="st2" cx="562.7" cy="501.4" r="14.7"/>
<circle class="st1" cx="562.7" cy="501.4" r="4.9"/>
<path class="st7" d="M519.9,472.2c-3.5-15.6,7.6-31.3,24.8-35.1s33.9,5.7,37.4,21.2s-7.9,21.3-25.1,25.2S523.3,487.8,519.9,472.2z"
	/>
<ellipse transform="matrix(0.1602 -0.9871 0.9871 0.1602 75.8051 866.1646)" class="st6" cx="546.9" cy="388.5" rx="43.1" ry="43.1"/>
<rect x="527.3" y="422.3" class="st6" width="13.1" height="23.4"/>
<rect x="553.5" y="422.3" class="st6" width="13.1" height="23.4"/>
<ellipse class="st6" cx="538.2" cy="446" rx="10.9" ry="4.1"/>
<ellipse class="st6" cx="564.4" cy="445.5" rx="10.9" ry="4.1"/>
<circle class="st2" cx="548" cy="377.6" r="14.7"/>
<circle class="st1" cx="548" cy="377.6" r="4.9"/>
<path class="st7" d="M505.2,348.5c-3.5-15.6,7.6-31.3,24.8-35.1s33.9,5.7,37.4,21.2s-7.9,21.3-25.1,25.2S508.6,364.1,505.2,348.5z"
	/>
<ellipse transform="matrix(0.4285 -0.9035 0.9035 0.4285 -48.1616 660.9533)" class="st6" cx="498.4" cy="368.5" rx="6.8" ry="21.5"/>
<path class="st2" d="M525.8,404.1c0,4.2,10.9,12.5,22.9,12.5s23.3-11.9,23.3-16.1s-11.3,0.8-23.3,0.8S525.8,399.9,525.8,404.1z"/>
<circle class="st8" cx="672.7" cy="441.7" r="6"/>
<circle class="st8" cx="689" cy="393.3" r="6"/>
<circle class="st8" cx="674.1" cy="368.5" r="6"/>
<rect x="623.5" y="533.3" transform="matrix(0.9639 -0.2664 0.2664 0.9639 -120.7868 188.5219)" class="st6" width="21.7" height="12.1"/>
<ellipse transform="matrix(0.9639 -0.2664 0.2664 0.9639 -121.5503 185.0129)" class="st6" cx="621.1" cy="540.5" rx="3.8" ry="10.1"/>
<ellipse transform="matrix(0.1343 -0.9909 0.9909 0.1343 99.5376 1104.8645)" class="st6" cx="682.1" cy="495.5" rx="19.9" ry="6.3"/>
<circle class="st6" cx="678.2" cy="532.8" r="39.9"/>
<rect x="623.5" y="526.3" transform="matrix(0.9639 -0.2664 0.2664 0.9639 -118.9042 188.2665)" class="st6" width="21.7" height="12.1"/>
<ellipse transform="matrix(0.9639 -0.2664 0.2664 0.9639 -119.6674 184.7537)" class="st6" cx="621.1" cy="533.4" rx="3.8" ry="10.1"/>
<circle class="st2" cx="688.7" cy="509.9" r="13.6"/>
<circle class="st1" cx="693.1" cy="503.9" r="4.5"/>
<path class="st7" d="M724.3,560.2c14.8-0.7,26.1-14.5,25.2-30.8s-13.4-28.9-28.2-28.2s-17.1,12.3-16.3,28.6S709.5,560.9,724.3,560.2
	z"/>
<path class="st2" d="M661.9,515.9c-5,0.4-9.4-3.3-9.8-8.3c-0.4-5,3.3-9.4,8.3-9.8c5-0.4,6.4,3.6,6.8,8.6S666.9,515.5,661.9,515.9z"
	/>
<ellipse transform="matrix(0.1343 -0.9909 0.9909 0.1343 77.1947 1098.2365)" class="st6" cx="667.2" cy="504.9" rx="19.9" ry="6.3"/>
<circle class="st8" cx="669.7" cy="480.7" r="6"/>
<path class="st4" d="M634.7,342.7c0.5-4.1-2.3-7.8-6.4-8.4c-0.3,0-0.7-0.1-1-0.1h-2.4c0.6-1.1,0.9-2.3,0.9-3.5
	c0-4.1-3.4-7.5-7.5-7.5h-25c-4.1,0-7.5,3.4-7.5,7.5s3.4,7.5,7.5,7.5h2.4c-0.6,1.1-0.9,2.3-0.9,3.5c0,3.2,2,6,5.1,7.1
	c-0.5,4.1,2.3,7.8,6.4,8.4c0.3,0,0.7,0.1,1,0.1h25c4.1,0,7.5-3.3,7.5-7.5C639.8,346.6,637.8,343.7,634.7,342.7z"/>
<rect x="295.5" y="397.7" transform="matrix(0.7071 -0.7071 0.7071 0.7071 -194.3208 326.972)" class="st1" width="4.1" height="0.8"/>
</svg>
